<?xml version="1.0" encoding="utf-8"?>
<!-- Generator: Adobe Illustrator 18.0.0, SVG Export Plug-In . SVG Version: 6.00 Build 0)  -->
<!DOCTYPE svg PUBLIC "-//W3C//DTD SVG 1.1//EN" "http://www.w3.org/Graphics/SVG/1.1/DTD/svg11.dtd">
<svg version="1.1" id="Layer_1" xmlns="http://www.w3.org/2000/svg" xmlns:xlink="http://www.w3.org/1999/xlink" x="0px" y="0px"
	 viewBox="19 25 62 50" enable-background="new 19 25 62 50" xml:space="preserve">
<g>
	<path d="M28,32.9l49.6,4.6v0l-4.5,24.7H36l-1.3,3.1h0c1.3,0.5,2.4,1.6,2.8,3l0,0h28h0c0.7-2,2.5-3.4,4.7-3.4c2.8,0,5,2.2,5,5
		c0,2.8-2.2,5-5,5c-2.4,0-4.5-1.7-4.9-4h0H37.7l0,0c-0.4,2.3-2.5,4-4.9,4c-2.8,0-5-2.2-5-5c0-2.3,1.6-4.3,3.8-4.8l1.5-3.2l-8.7-32.2
		H19v-3.1h7.3L28,32.9z"/>
</g>
</svg>
