<?xml version="1.0" encoding="utf-8"?>
<!-- Generator: Adobe Illustrator 18.0.0, SVG Export Plug-In . SVG Version: 6.00 Build 0)  -->
<!DOCTYPE svg PUBLIC "-//W3C//DTD SVG 1.1//EN" "http://www.w3.org/Graphics/SVG/1.1/DTD/svg11.dtd">
<svg version="1.1" id="Layer_1" xmlns="http://www.w3.org/2000/svg" xmlns:xlink="http://www.w3.org/1999/xlink" x="0px" y="0px"
	 viewBox="19 25.2 61.9 49.7" enable-background="new 19 25.2 61.9 49.7" xml:space="preserve">
<g id="Your_Icon">
	<path d="M58.6,53.4H47.3c-2.3,0-4.3-1.9-4.3-4.3V38H25.3c-1.5,0-2.7,1.2-2.7,2.7v20.7c0,1.5,1.2,2.7,2.7,2.7h10.5l0.2,7.4l7.9-7.4
		h14.5c1.5,0,2.7-1.2,2.7-2.7v-5.7l-1.4-1.3L58.6,53.4z"/>
	<path d="M48.6,50.1h12.1l1.7,1.6l4.9,4.6l0.1-6.2h8.7c1.3,0,2.3-1,2.3-2.3V30.6c0-1.3-1-2.3-2.3-2.3H48.6c-1.3,0-2.3,1-2.3,2.3v6.1
		v11.1C46.3,49.1,47.3,50.1,48.6,50.1z"/>
</g>
</svg>
