<?xml version="1.0" encoding="utf-8"?>
<!-- Generator: Adobe Illustrator 18.1.0, SVG Export Plug-In . SVG Version: 6.00 Build 0)  -->
<svg version="1.1" id="Layer_1" xmlns="http://www.w3.org/2000/svg" xmlns:xlink="http://www.w3.org/1999/xlink" x="0px" y="0px"
	 viewBox="0 0 612 792" enable-background="new 0 0 612 792" xml:space="preserve">
<path fill="#BF3937" d="M359.3,488h63.2l-25.7-29.6H217.2V289.6h-84.9c-21.7,0-36.5,0-45.4,32.6l-15.8,63.2H36.5
	c-17.8,0-17.8,0-17.8,17.8c0,28.6,0,56.3,0,84.9H0v19.7h67.1c3,26.7,19.7,45.4,45.4,45.4s42.4-18.8,48.4-45.4h26.7V488h72.1
	c0,3-1,7.9-1,10.9c0,29.6,22.7,54.3,51.3,54.3c27.6,0,51.3-23.7,51.3-54.3C360.3,494.9,360.3,491,359.3,488"/>
<polygon fill="#BF3937" points="612,223.4 237.9,223.4 237.9,431.7 416.6,431.7 459,481.1 612,481.1 "/>
</svg>
